<?xml version="1.0" encoding="utf-8"?>
<!-- Generator: Adobe Illustrator 25.3.1, SVG Export Plug-In . SVG Version: 6.00 Build 0)  -->
<svg version="1.1" id="Layer_1" xmlns="http://www.w3.org/2000/svg" xmlns:xlink="http://www.w3.org/1999/xlink" x="0px" y="0px"
	 viewBox="0 0 100 80" style="enable-background:new 0 0 100 80;" xml:space="preserve">
<style type="text/css">
	.st0{fill:#FFFFFF;}
</style>
<path class="st0" d="M96,34.4c-1.1-0.5-2.2-0.9-3.4-1.3c-4.1-1.5-8.2-2.7-12.2-4.4c-7.2-3.1-14.2-6.4-21.8-8.4
	c-2.3-0.6-4.7-1.1-7.1-1.3c-3.6-0.2-7.3-0.1-10.9,0c-2,0.1-4.1,0.3-6.1,0.8c-6,1.7-12,3.5-17.3,7c-1.1,0.8-1.9,0.4-2.2-0.7
	c-0.2-0.5,0-1,0.4-1.3c4-2.8,8.2-5.2,12.9-6.8c7.4-2.6,15-4.3,22.9-3.2c4.4,0.6,8.9,1,13.2,2.2c8.8,2.5,16.9,6.8,24.9,11
	c3,1.6,4.4,1.3,5.9-1.5c0.5-0.9,0.8-1.9,1.2-2.9c0.2-0.5,0-1-0.4-1.3c-1.5-1.1-2.8-2.1-4.2-2.9C87,17,82,14.9,77.2,12.6
	c-6.1-2.8-12.6-4.7-19.2-6c-2.1-0.4-4.2-1-6.4-1.2c-7.7-0.8-15.2,0.6-22.4,3C20.7,11.2,13.1,15.9,6.5,22c-1.6,1.5-1.8,3.1-0.6,4.8
	c0.8,1.2,1.9,2.3,3,3.5c0.5,0.5,0.4,1.3-0.2,1.7c-2.3,1.5-4.6,3-7,4.5c0.7,0.5,1,1,1.4,1.1c3.5,1.3,6.5,3.5,9.6,5.5
	c3.9,2.4,7.8,4.8,11.8,6.9c2.9,1.5,6.1,2.7,9.2,4c0.4,0.2,0.7,0.6,0.7,1c0,1.1,0,2.2,0,3.3c0,3.3,0,6.5,0.2,9.8
	c0.1,1.2,0.8,2.5,1.5,3.5c2.6,3.7,6.3,3.5,10.1,2.5c3.7-0.9,5.6-4.1,4.8-7.7c-0.4-1.8-1.1-3.4-1.7-5.1c-0.2-0.7-0.5-1.5-0.8-2.3
	s0.4-1.6,1.3-1.4c0.5,0.1,1,0.2,1.4,0.5c3.4,2,6.7,4.2,10,6.3c3.4,2.2,6.8,4.5,10.4,6.4c3.5,1.9,7.3,3.3,11.4,2.7
	c4.1-0.6,8.2-2.2,9.5-6.2c2.2-6.4,0.9-11.1-5.2-14.4c-2.9-1.6-6.8-0.5-8.6,2.2c-1.2,1.9-1.9,4-0.2,5.9c0.6,0.6,1.4,1.1,2.2,1
	c1.5-0.2,2.4-1.8,3.8-1.9c1.9-0.2,1.4,3.4,0.9,4.4c-0.7,1.4-2.4,1.8-3.8,1.7c-1.1,0-2.2-0.3-3.3-0.7c-0.9-0.3-1.8-0.7-2.7-1.2
	C70,61.3,65,57.7,60,52.8c-0.6-0.5-0.4-1.5,0.3-1.8c2.4-1,4.5-1.8,6.5-2.9c4.6-2.6,9.3-5,13.5-8.1c3.2-2.4,5.9-1.8,9-0.5
	c1.3,0.6,2.7,1.1,4.1,1.5c2,0.6,3.9-0.3,4.7-2.2C98.8,36.9,98.2,35.4,96,34.4z M47.2,26.1c2.7,0,5,1.7,5,3.8s-2.2,3.8-5,3.8
	c-2.7,0-5-1.7-5-3.8S44.5,26.1,47.2,26.1z M44.2,67.7c0,0.7-0.5,1.2-1.2,1.1c-1.6-0.2-2.2-1.7-2.5-2.9c-0.8-3.5-1.2-7.1-1.7-10.7
	l0,0c-0.2-1.3,1.6-1.7,2.1-0.5C42.3,58.2,43.9,64.7,44.2,67.7z M36.2,45.4c-8.5-1.4-16.9-4.9-20.2-8c-0.6-0.5-0.4-1.5,0.3-1.8
	c4.8-1.9,9.6-3.9,14.5-5.8c2-0.8,4.3,0.1,5.3,2.1c3,6.1,9.6,8.9,16,6.3c1.9-0.7,3.4-2.5,4.8-4c0.9-0.9,1.5-2.2,2.4-3.7
	c0.3-0.5,0.8-0.7,1.3-0.5c3.9,1.4,7.8,2.8,12,4.3c0.8,0.3,1,1.4,0.2,1.9C61.4,43.7,49.6,47.6,36.2,45.4z"/>
</svg>
